<?xml version="1.0" encoding="UTF-8"?>
<svg id="Layer_2" data-name="Layer 2" xmlns="http://www.w3.org/2000/svg" viewBox="0 0 1536.63 524.59">
  <defs>
    <style>
      .cls-1 {
        fill: #fff;
      }

      .cls-2 {
        fill: #38a3a5;
      }
    </style>
  </defs>
  <g id="Layer_1-2" data-name="Layer 1">
    <g>
      <g>
        <path class="cls-2" d="M154.89,444.57c-2.56,1.5-5.17,2.91-7.82,4.24h170.39l-68.95-243.65h73.25l40.48,163.21h3.93l87.34-163.21h.67L563.43,0H35.67L0,253.77c13.05-16.26,28.83-29.36,47.36-39.27,21.44-11.47,44.94-17.21,70.51-17.21,27.85,0,50.95,5.9,69.29,17.7,18.33,11.8,30.36,28.84,36.08,51.13l-62.45,24.58c-3.63-11.47-9.82-19.91-18.56-25.32-8.75-5.41-19.68-8.11-32.78-8.11s-24.68,3.03-35.69,9.09c-11.02,6.07-20.23,14.5-27.65,25.32s-12.19,23.77-14.31,38.84c-2.12,15.08-1,28.11,3.36,39.08,4.36,10.98,11.19,19.5,20.5,25.56,9.3,6.07,20.35,9.09,33.13,9.09,14.42,0,26.83-3.2,37.23-9.59,10.4-6.39,19.34-15.16,26.8-26.3l53.93,25.56c-12.78,20.98-30.07,37.85-51.85,50.64Z"/>
        <polygon class="cls-2" points="525.76 205.16 525.77 205.16 525.54 205.57 396 448.81 542.46 448.81 594.97 75.18 525.76 205.16"/>
      </g>
      <g>
        <path class="cls-1" d="M609.64,447.81l44.79-254.5h38.39l-12.44,69.67-7.11,28.44h2.13c4.27-6.16,9.3-11.49,15.11-16,5.8-4.5,12.44-8.05,19.91-10.66,7.46-2.6,15.69-3.91,24.7-3.91,13.51,0,25,2.9,34.48,8.71,9.47,5.81,16.23,14.34,20.26,25.59,4.03,11.26,4.62,25.3,1.78,42.12l-19.9,110.54h-38.03l19.91-110.54c1.65-9.48,1.18-17.24-1.42-23.28-2.61-6.04-6.7-10.54-12.26-13.51-5.57-2.96-11.91-4.44-19.02-4.44-9.72,0-18.37,2.37-25.95,7.11-7.59,4.74-13.92,11.37-19.02,19.9-5.1,8.53-8.71,18.61-10.84,30.21l-17.06,94.55h-38.39Z"/>
        <path class="cls-1" d="M904.3,453.5c-16.83,0-31.52-3.79-44.07-11.38-12.56-7.58-22.28-17.83-29.15-30.75-6.88-12.91-10.31-27.43-10.31-43.54,0-14.93,2.49-28.85,7.46-41.77,4.98-12.91,12.14-24.29,21.5-34.12,9.36-9.83,20.55-17.47,33.59-22.93,13.03-5.45,27.6-8.17,43.72-8.17,17.06,0,31.81,3.79,44.25,11.37,12.44,7.59,22.09,17.83,28.97,30.75,6.87,12.92,10.31,27.43,10.31,43.54,0,14.93-2.49,28.91-7.46,41.94-4.98,13.03-12.15,24.41-21.5,34.12-9.36,9.72-20.56,17.3-33.59,22.75-13.03,5.45-27.61,8.18-43.72,8.18ZM908.57,418.31c9.24,0,17.71-1.72,25.42-5.15,7.7-3.43,14.4-8.29,20.08-14.57,5.69-6.28,10.13-13.62,13.33-22.04,3.2-8.41,4.8-17.36,4.8-26.84,0-10.19-2.02-19.31-6.04-27.37-4.03-8.05-9.72-14.45-17.06-19.19-7.35-4.74-16.12-7.11-26.3-7.11-12.09,0-22.93,3.08-32.52,9.24-9.6,6.16-17.12,14.4-22.57,24.7-5.46,10.31-8.18,21.86-8.18,34.66,0,10.19,1.96,19.37,5.86,27.55,3.91,8.17,9.54,14.57,16.88,19.19,7.34,4.62,16.11,6.93,26.3,6.93Z"/>
        <path class="cls-1" d="M1029.06,447.81l44.79-254.5h38.39l-44.79,254.5h-38.39Z"/>
        <path class="cls-1" d="M1112.59,447.81l31.63-181.28h38.39l-31.63,181.28h-38.39ZM1173.01,239.87c-7.11,0-13.15-2.54-18.13-7.64-4.98-5.09-7.46-11.2-7.46-18.31s2.49-13.45,7.46-18.31c4.98-4.86,11.02-7.29,18.13-7.29s13.51,2.43,18.48,7.29c4.98,4.86,7.46,10.96,7.46,18.31s-2.49,13.21-7.46,18.31c-4.98,5.1-11.14,7.64-18.48,7.64Z"/>
        <path class="cls-1" d="M1283.55,453.5c-16.35,0-30.75-3.79-43.19-11.38-12.44-7.58-22.1-17.83-28.97-30.75-6.87-12.91-10.31-26.95-10.31-42.12s2.54-28.49,7.64-41.41c5.09-12.91,12.32-24.4,21.68-34.48,9.36-10.07,20.62-18.01,33.77-23.82,13.15-5.8,28.02-8.71,44.61-8.71,13.51,0,25.35,2.31,35.54,6.93,10.19,4.62,18.6,10.79,25.24,18.48,6.63,7.7,11.25,16.06,13.86,25.06l-35.55,14.22c-1.9-6.16-4.92-11.43-9.06-15.82-4.15-4.38-9.19-7.76-15.11-10.13-5.93-2.37-12.56-3.55-19.91-3.55-11.85,0-22.63,3.02-32.35,9.06-9.72,6.04-17.42,14.28-23.1,24.7-5.69,10.43-8.53,22.39-8.53,35.9,0,9.95,2.07,18.9,6.22,26.84,4.14,7.94,9.78,14.22,16.88,18.84,7.11,4.62,15.4,6.93,24.88,6.93,7.82,0,14.99-1.25,21.51-3.73,6.51-2.49,12.32-5.98,17.42-10.49,5.09-4.5,9.3-9.83,12.62-16l31.63,15.28c-9.24,16.83-21.21,29.39-35.9,37.68-14.7,8.29-31.87,12.44-51.54,12.44Z"/>
        <path class="cls-1" d="M1357.84,524.59l6.04-33.06h172.75l-5.69,33.06h-173.1Z"/>
      </g>
    </g>
  </g>
</svg>