<?xml version="1.0" encoding="UTF-8"?>
<svg id="Layer_2" data-name="Layer 2" xmlns="http://www.w3.org/2000/svg" viewBox="0 0 594.97 448.81">
  <defs>
    <style>
      .cls-1 {
        fill: #38a3a5;
      }
    </style>
  </defs>
  <g id="Layer_1-2" data-name="Layer 1">
    <g>
      <path class="cls-1" d="M154.89,444.57c-2.56,1.5-5.17,2.91-7.82,4.24h170.39l-68.95-243.65h73.25l40.48,163.21h3.93l87.34-163.21h.67L563.43,0H35.67L0,253.77c13.05-16.26,28.83-29.36,47.36-39.27,21.44-11.47,44.94-17.21,70.51-17.21,27.85,0,50.95,5.9,69.29,17.7,18.33,11.8,30.36,28.84,36.08,51.13l-62.45,24.58c-3.63-11.47-9.82-19.91-18.56-25.32-8.75-5.41-19.68-8.11-32.78-8.11s-24.68,3.03-35.69,9.09c-11.02,6.07-20.23,14.5-27.65,25.32s-12.19,23.77-14.31,38.84c-2.12,15.08-1,28.11,3.36,39.08,4.36,10.98,11.19,19.5,20.5,25.56,9.3,6.07,20.35,9.09,33.13,9.09,14.42,0,26.83-3.2,37.23-9.59,10.4-6.39,19.34-15.16,26.8-26.3l53.93,25.56c-12.78,20.98-30.07,37.85-51.85,50.64Z"/>
      <polygon class="cls-1" points="525.76 205.16 525.77 205.16 525.54 205.57 396 448.81 542.46 448.81 594.97 75.18 525.76 205.16"/>
    </g>
  </g>
</svg>